<svg width="128" height="128" viewBox="0 0 128 128" fill="none" xmlns="http://www.w3.org/2000/svg">
<path fill-rule="evenodd" clip-rule="evenodd" d="M48 22C48 19.2386 50.2386 17 53 17C59.1438 17 65.1793 18.6172 70.5 21.6891C75.8207 24.761 80.239 29.1793 83.3109 34.5C84.6916 36.8915 83.8722 39.9494 81.4808 41.3301C79.0893 42.7108 76.0314 41.8915 74.6506 39.5C72.4564 35.6995 69.3005 32.5436 65.5 30.3494C61.6995 28.1552 57.3884 27 53 27C50.2386 27 48 24.7614 48 22Z" fill="#D9D9D9" fill-opacity="0.7"/>
<path d="M88 52C88 54.7614 85.7614 57 83 57C80.2386 57 78 54.7614 78 52C78 49.2386 80.2386 47 83 47C85.7614 47 88 49.2386 88 52Z" fill="#D9D9D9" fill-opacity="0.7"/>
<path fill-rule="evenodd" clip-rule="evenodd" d="M52.5 95C75.9721 95 95 75.9721 95 52.5C95 29.0279 75.9721 10 52.5 10C29.0279 10 10 29.0279 10 52.5C10 75.9721 29.0279 95 52.5 95ZM52.5 105C81.495 105 105 81.4949 105 52.5C105 23.5051 81.495 0 52.5 0C23.5051 0 1.52588e-05 23.5051 1.52588e-05 52.5C1.52588e-05 81.4949 23.5051 105 52.5 105Z" fill="#D9D9D9"/>
<path fill-rule="evenodd" clip-rule="evenodd" d="M126.536 126.536C124.583 128.488 121.417 128.488 119.464 126.536L84.4645 91.5355L91.5355 84.4645L126.536 119.464C128.488 121.417 128.488 124.583 126.536 126.536Z" fill="#D9D9D9"/>
</svg>
